Three Days of The Condor 1975 BluRay 1080p ac3 x264-LoNeWoLf

Encoded by Tequila-Bob a.k.a. bobnjeff a.k.a.LoNeWoLf

Source - NTSC BluRay Disc.
 
http://www.imdb.com/title/tt0073802/

Genres:Drama | Mystery | Romance | Thriller

Rated R-Violence, Some Language and a Brief Sex Scene

A bookish CIA researcher finds all his co-workers dead, and must outwit those responsible until he figures out who he can really trust. 


Director: Sydney Pollack
Writers: James Grady (novel), Lorenzo Semple Jr. (screenplay), and 1 more credit » 
Stars:Robert Redford, Faye Dunaway and Cliff Robertson 
Release Date:14 November 1975 
 
http://photobucket.com/TheeDaysOfTheCondor_TequilaBob

Cast
Cast overview, first billed only: 
  Robert Redford  ...  Joseph Turner / The Condor  
  Faye Dunaway  ...  Kathy Hale  
  Cliff Robertson  ...  J. Higgins  
  Max von Sydow  ...  G. Joubert (as Max Von Sydow)  
  John Houseman  ...  Mr. Wabash  
  Addison Powell  ...  Leonard Atwood  
  Walter McGinn  ...  Sam Barber  
  Tina Chen  ...  Janice Chon  
  Michael Kane  ...  S.W. Wicks  
  Don McHenry  ...  Dr. Ferdinand Lappe  
  Michael B. Miller  ...  Fowler (as Michael Miller)  
  Jess Osuna  ...  The Major  
  Dino Narizzano  ...  Harold  
  Helen Stenborg  ...  Mrs. Edwina Russell (as Helen Stenbure)  
  Patrick Gorman  ...  Martin   


Format : Matroska 
File size : 7.98 GiB 
Duration : 1h 57mn 
Overall bit rate : 9 734 Kbps 
Encoded date : UTC 2010-10-18 23:04:28 
Writing application : mkvmerge v4.3.0  
Writing library : libebml v1.0.0 + libmatroska v1.0.0 

Video 
ID : 1 
Format : AVC 
Format/Info : Advanced Video Codec 
Format profile : High@L5.0 
Format settings, CABAC : Yes 
Format settings, ReFrames : 9 frames 
Muxing mode : Container profile=Unknown@5.0 
Codec ID : V_MPEG4/ISO/AVC 
Duration : 1h 57mn 
Bit rate : 9 057 Kbps 
Width : 1 920 pixels 
Height : 816 pixels 
Display aspect ratio : 2.35:1 
Frame rate : 23.976 fps 
Color space : YUV 
Chroma subsampling : 4:2:0 
Bit depth : 8 bits 
Scan type : Progressive 
Bits/(Pixel*Frame) : 0.241 
Stream size : 7.30 GiB (91%) 
Language : English 

Audio 
ID : 2 
Format : AC-3 
Format/Info : Audio Coding 3 
Mode extension : CM (complete main) 
Muxing mode : Header stripping 
Codec ID : A_AC3 
Duration : 1h 57mn 
Bit rate mode : Constant 
Bit rate : 640 Kbps 
Channel(s) : 6 channels 
Channel positions : Front: L C R, Side: L R, LFE 
Sampling rate : 48.0 KHz 
Bit depth : 16 bits 
Stream size : 537 MiB (7%) 
Title : 3/2+1 
Language : English 

Text #1  
Language : English 

Text #2 
Language : English 
  http://photobucket.com/TheeDaysOfTheCondor_TequilaBob

